<svg xmlns="http://www.w3.org/2000/svg" width="480" height="480" fill="none"><g clip-path="url(#a)"><path fill="#34A853" d="M375.218 292.984a135.527 135.527 0 0 0-2.339-11.819 136.998 136.998 0 0 0-11.518-30.673 138.472 138.472 0 0 0-9.927-16.251 136.961 136.961 0 0 0-14.99-17.722 133.954 133.954 0 0 0-7.137-6.635 136.965 136.965 0 0 0-16.998-12.565c.053-.087.1-.18.153-.266 2.743-4.758 5.493-9.51 8.237-14.268l8.051-13.936c1.929-3.334 3.857-6.675 5.779-10.009.457-.792.815-1.61 1.087-2.449a12.614 12.614 0 0 0-.384-8.731 12.422 12.422 0 0 0-5.123-5.903 12.56 12.56 0 0 0-5.321-1.717 12.584 12.584 0 0 0-4.281.373 12.47 12.47 0 0 0-7.601 5.829 7344.922 7344.922 0 0 0-5.779 10.009l-8.052 13.936c-2.743 4.758-5.493 9.51-8.237 14.268-.298.519-.603 1.038-.901 1.564-.418-.166-.829-.333-1.246-.493-15.129-5.789-31.544-8.957-48.701-8.957-.47 0-.934 0-1.405.007-15.255.153-29.914 2.815-43.585 7.593a123.047 123.047 0 0 0-4.698 1.75c-.279-.486-.563-.972-.842-1.457-2.743-4.759-5.493-9.51-8.237-14.269l-8.052-13.935a7343.97 7343.97 0 0 1-5.778-10.009 12.476 12.476 0 0 0-9.53-6.183 12.659 12.659 0 0 0-2.352-.019 12.386 12.386 0 0 0-5.322 1.716 12.492 12.492 0 0 0-4.334 4.333 12.865 12.865 0 0 0-1.352 3.228 12.623 12.623 0 0 0 .179 7.074c.272.838.63 1.657 1.087 2.449 1.929 3.334 3.857 6.675 5.779 10.009l8.051 13.935c2.744 4.759 5.494 9.51 8.238 14.268.02.04.046.08.066.12a137.477 137.477 0 0 0-15.772 11.467 138.149 138.149 0 0 0-23.585 25.608 136.39 136.39 0 0 0-9.927 16.251 136.985 136.985 0 0 0-6.156 13.623 136.887 136.887 0 0 0-7.436 27.205c-.093.553-.179 1.112-.265 1.664-.305 1.99-.563 3.993-.782 6.01h272c-.219-2.017-.477-4.02-.782-6.01l.02-.013Z" /><path fill="#202124" d="M310.732 261.252c5.442-3.637 6.232-12.05 1.766-18.791-4.467-6.741-12.499-9.257-17.941-5.621-5.442 3.637-6.233 12.049-1.766 18.79 4.466 6.741 12.499 9.258 17.941 5.622ZM187.406 255.654c4.467-6.741 3.676-15.154-1.766-18.79-5.442-3.637-13.474-1.12-17.941 5.621-4.467 6.741-3.676 15.154 1.766 18.79 5.442 3.636 13.474 1.12 17.941-5.621Z" /></g><path fill="#4285F4" d="M397.516 349c11.133 0 19.636-2.966 25.508-8.897 5.872-5.813 8.808-13.94 8.808-24.379v-24.913c0-4.864 1.346-8.304 4.038-10.321 2.569-2.135 5.811-3.203 9.726-3.203H450v-19.574h-4.404c-3.915 0-7.157-1.008-9.726-3.025-2.692-2.136-4.038-5.635-4.038-10.499v-24.913c0-10.558-2.936-18.744-8.808-24.557-5.872-5.813-14.375-8.719-25.508-8.719H381v19.218h13.947c3.67 0 6.851 1.305 9.542 3.915 2.57 2.491 3.854 5.932 3.854 10.321v26.692c0 5.576 1.162 10.143 3.487 13.702 2.324 3.559 6.056 5.873 11.194 6.94v1.424c-5.138 1.067-8.87 3.381-11.194 6.94-2.325 3.559-3.487 8.126-3.487 13.702v26.692c0 4.389-1.284 7.889-3.854 10.499-2.691 2.491-5.872 3.737-9.542 3.737H381V349h16.516ZM81.963 186c-10.81 0-19.067 2.966-24.769 8.897-5.702 5.813-8.553 13.94-8.553 24.379v24.913c0 4.864-1.307 8.304-3.92 10.321-2.495 2.135-5.643 3.203-9.444 3.203H31v19.574h4.277c3.801 0 6.95 1.008 9.444 3.025 2.613 2.136 3.92 5.635 3.92 10.499v24.913c0 10.558 2.851 18.744 8.553 24.557C62.896 346.094 71.153 349 81.963 349H98v-19.218H84.457c-3.563 0-6.652-1.305-9.265-3.915-2.495-2.491-3.742-5.932-3.742-10.321v-26.692c0-5.576-1.13-10.143-3.386-13.702-2.257-3.559-5.88-5.873-10.87-6.94v-1.424c4.99-1.067 8.613-3.381 10.87-6.94 2.257-3.559 3.386-8.126 3.386-13.702v-26.692c0-4.389 1.247-7.889 3.742-10.499 2.613-2.491 5.702-3.737 9.265-3.737H98V186H81.963Z" /><defs><clipPath id="a"><path fill="#fff" d="M104 140h272v159H104z" /></clipPath></defs></svg>